<svg xmlns="http://www.w3.org/2000/svg" version="1.1" xmlns:xlink="http://www.w3.org/1999/xlink" xmlns:svgjs="http://svgjs.dev/svgjs" width="128" height="128" viewBox="0 0 128 128"><g transform="matrix(0.8046875,0,0,0.8046875,12.760752631578946,13.706248204963451)"><svg viewBox="0 0 95 93" data-background-color="#ffffff" preserveAspectRatio="xMidYMid meet" height="125" width="128" xmlns="http://www.w3.org/2000/svg" xmlns:xlink="http://www.w3.org/1999/xlink"><g id="tight-bounds" transform="matrix(1,0,0,1,-0.24049999999999727,0.0007239897565085585)"><svg viewBox="0 0 95.481 92.998552020487" height="92.998552020487" width="95.481"><g><svg viewBox="0 0 95.481 92.998552020487" height="92.998552020487" width="95.481"><g><svg viewBox="0 0 95.481 92.998552020487" height="92.998552020487" width="95.481"><g id="textblocktransform"><svg viewBox="0 0 95.481 92.998552020487" height="92.998552020487" width="95.481" id="textblock"><g><svg viewBox="0 0 95.481 92.998552020487" height="92.998552020487" width="95.481"><g><svg viewBox="0 0 95.481 92.998552020487" height="92.998552020487" width="95.481"><g><svg xmlns="http://www.w3.org/2000/svg" xmlns:xlink="http://www.w3.org/1999/xlink" version="1.1" x="0" y="0" viewBox="8.715999999999998 9.990000000000002 46.078 44.88" enable-background="new 0 0 64 64" xml:space="preserve" height="92.998552020487" width="95.481" class="icon-icon-0" data-fill-palette-color="accent" id="icon-0"><g fill="#6ad7c9" data-fill-palette-color="accent"><g fill="#6ad7c9" data-fill-palette-color="accent"><path fill-rule="evenodd" clip-rule="evenodd" d="M54.794 50.79c-3.917-23.005-17.142-39.666-44.399-40.8-1.448 3.147-0.157 7.849-1.2 10.8 0.395 1.463 2.788 2.61 4.32 1.44-0.483 0.9 0.973 0.81 1.92 1.44-0.035-0.675 0.587-0.692 1.2-0.72-0.994 0.761 1.598 1.054 2.4 0.48-0.018 0.418 0.054 0.746 0.24 0.96 2.91 0.399 6.241 2.534 9.6 3.84-0.283 0.038-0.682-0.041-0.72 0.24 8.384 5.822 13.022 14.059 13.44 25.68 0.383 0.496 1.464 0.295 1.92 0.72 0.08 0 0.16 0 0.239 0 2.805-0.894 7.441 0.226 10.32-0.48 0.879-0.973-0.009-2.236 0.72-3.359C54.794 50.95 54.794 50.87 54.794 50.79zM43.994 51.99c-0.119-6.13-1.191-11.015-3.12-14.4 0.296 0.104 0.493 0.308 0.48 0.72 0.776-0.661-1.527-1.188-0.48-2.159-0.421-0.539-0.991-0.929-1.68-1.2 0.046-0.272 0.241-0.134 0.24 0 0.194-0.046 0.239-0.241 0.479-0.24-0.928-0.272-0.834-1.566-2.16-1.44-0.088-0.408 0.188-0.452 0.48-0.479-2.129-2.865-3.623-5.125-7.44-6.48 0.059-0.261 0.477-0.163 0.48-0.48-5.264-3.78-10.945-6.084-18.72-6.48 0.403-2.172-0.382-4.275 0.48-6.72 22.569 2.573 36.904 15.4 38.88 39.36C49.274 51.99 46.635 51.99 43.994 51.99z" fill="#000000" data-fill-palette-color="accent"></path><path fill-rule="evenodd" clip-rule="evenodd" d="M10.395 26.07c-0.241 0.32-0.396 0.725-0.72 0.96 0.348 2.521-0.438 5.624-0.38 7.454 0.04-0.027 0.085-0.038 0.141-0.014 0.043 1.063 0.434 1.521-0.72 1.681 0 0.319 0 0.64 0 0.96 0.63-0.134 0.74 0.363 1.2 0.96-0.307-0.014-0.333-0.308-0.72-0.24 0.539 0.883 1.528 1.333 2.64 0.72-0.477 0.554 0.06 0.267 0.24 0.72 2.347-0.219 4.371 1.091 6.24 1.2-0.293 0.027-0.568 0.072-0.48 0.48 3.801 1.398 5.299 5.101 7.2 8.399-0.167 1.412 0.305 4.143 1.2 5.28 1.587 0.049 2.527-0.332 3.84 0.24 0.08 0 0.16 0 0.24 0 1.869-1.004 5.988 0.624 8.16-0.96 0.123-2.396-0.051-5.615-0.96-8.16C33.699 35.077 24.876 25.899 10.395 26.07zM27.915 51.99c0.066-3.783-1.224-7.389-2.64-9.12 0.273-0.007 0.452 0.08 0.574 0.225-0.213-0.537-0.323-1.547-1.534-1.425 0.514-0.493-0.363-1.369-0.96-0.96 0.327-1.586-2.877-2.361-3.12-3.36-1.062 0.114-1.193-0.33-1.92 0 0.078-1.633-3.475-1.619-5.52-1.92-0.11-3.637-0.003-4.485-0.24-6.72 13.876 1.624 22.019 9.495 23.28 23.28C33.194 51.99 30.554 51.99 27.915 51.99z" fill="#000000" data-fill-palette-color="accent"></path><path fill-rule="evenodd" clip-rule="evenodd" d="M9.435 35.43c-0.096-0.247-0.129-0.581-0.141-0.946C9.055 34.645 9.101 35.577 9.435 35.43z" fill="#000000" data-fill-palette-color="accent"></path><path fill-rule="evenodd" clip-rule="evenodd" d="M13.034 43.83c-0.593 0.118-0.499 0.35-0.96 0.24 0.649 0.216-0.506 0.579-0.72 0.72-0.095-0.413 0.356-0.615 0-0.72-0.412 0.511-1.37 0.704-0.48 0.96-3.447 2.567-1.44 7.673 1.92 9.359C23.18 56.027 21.452 42.152 13.034 43.83zM17.354 51.03c-1.024 0.247-1.264 1.045-2.16 0.96-0.92-0.088-2.674-2.593-2.16-4.08 0.594-1.717 2.979-1.46 4.56-0.24C18.208 48.832 17.478 49.896 17.354 51.03z" fill="#000000" data-fill-palette-color="accent"></path></g></g></svg></g></svg></g></svg></g></svg></g></svg></g></svg></g><defs></defs></svg><rect width="95.481" height="92.998552020487" fill="none" stroke="none" visibility="hidden"></rect></g></svg></g></svg>