<svg xmlns="http://www.w3.org/2000/svg" version="1.1" xmlns:xlink="http://www.w3.org/1999/xlink" xmlns:svgjs="http://svgjs.dev/svgjs" width="2000" height="606" viewBox="0 0 2000 606"><g transform="matrix(1,0,0,1,-1.2121212121212466,-1.1371146041583415)"><svg viewBox="0 0 396 120" data-background-color="#ffffff" preserveAspectRatio="xMidYMid meet" height="606" width="2000" xmlns="http://www.w3.org/2000/svg" xmlns:xlink="http://www.w3.org/1999/xlink"><g id="tight-bounds" transform="matrix(1,0,0,1,0.2400000000000091,0.22517120874422858)"><svg viewBox="0 0 395.52 119.54961083877976" height="119.54961083877976" width="395.52"><g><svg viewBox="0 0 619.3619426211698 187.20792680196067" height="119.54961083877976" width="395.52"><g transform="matrix(1,0,0,1,223.84194262116972,54.80923647066018)"><svg viewBox="0 0 395.52000000000004 77.5894538606403" height="77.5894538606403" width="395.52000000000004"><g id="textblocktransform"><svg viewBox="0 0 395.52000000000004 77.5894538606403" height="77.5894538606403" width="395.52000000000004" id="textblock"><g><svg viewBox="0 0 395.52000000000004 77.5894538606403" height="77.5894538606403" width="395.52000000000004"><g transform="matrix(1,0,0,1,0,0)"><svg width="395.52000000000004" viewBox="-12.5 -31.25 159.29 31.25" height="77.5894538606403" data-palette-color="#343191"><g class="wordmark-text-0" data-fill-palette-color="primary" id="text-0"><path d="M31.15-19.05L29.8-11.6 21.7-11.6 19.7 0 10.2 0 15.7-31.25 35.2-31.25 32.55-23.25 23.75-23.25 23.05-19.05 31.15-19.05ZM9.1-2.4L8.7-0.15-12.5-2.4 9.1-2.4ZM10.8-12.05L10.4-9.8-10.8-12.05 10.8-12.05ZM11.65-16.85L11.25-14.6-9.95-16.85 11.65-16.85ZM12.5-21.65L12.1-19.4-9.1-21.65 12.5-21.65ZM13.3-26.45L12.95-24.2-8.25-26.45 13.3-26.45ZM9.95-7.25L9.55-5-11.65-7.25 9.95-7.25ZM14.15-31.25L13.75-29-7.4-31.25 14.15-31.25ZM65.85-19.05L64.55-11.8 55.05-11.8 54.4-8 66.05-8 64.65 0 43.5 0 49-31.25 69.9-31.25 67.3-23.25 57.05-23.25 56.35-19.05 65.85-19.05ZM42.4-2.4L42-0.15 20.8-2.4 42.4-2.4ZM44.1-12.05L43.7-9.8 22.5-12.05 44.1-12.05ZM44.95-16.85L44.55-14.6 23.35-16.85 44.95-16.85ZM45.8-21.65L45.4-19.4 24.2-21.65 45.8-21.65ZM46.6-26.45L46.25-24.2 25.05-26.45 46.6-26.45ZM43.25-7.25L42.85-5 21.65-7.25 43.25-7.25ZM47.45-31.25L47.05-29 25.9-31.25 47.45-31.25ZM102.15-19.05L100.85-11.8 91.35-11.8 90.7-8 102.35-8 100.95 0 79.8 0 85.3-31.25 106.2-31.25 103.6-23.25 93.35-23.25 92.65-19.05 102.15-19.05ZM78.7-2.4L78.3-0.15 57.1-2.4 78.7-2.4ZM80.4-12.05L80-9.8 58.8-12.05 80.4-12.05ZM81.25-16.85L80.85-14.6 59.65-16.85 81.25-16.85ZM82.1-21.65L81.7-19.4 60.5-21.65 82.1-21.65ZM82.9-26.45L82.55-24.2 61.35-26.45 82.9-26.45ZM79.55-7.25L79.15-5 57.95-7.25 79.55-7.25ZM83.75-31.25L83.35-29 62.2-31.25 83.75-31.25ZM121.59-31.25L134.89-31.25Q141.34-31.25 144.07-28.98 146.79-26.7 146.79-21.6L146.79-21.6Q146.79-19 146.19-15.6L146.19-15.6Q144.69-7.2 141.07-3.6 137.44 0 129.39 0L129.39 0 116.09 0 121.59-31.25ZM133.59-23.25L133.59-23.25 129.64-23.25 126.99-8 130.94-8Q132.89-8 133.84-8.47 134.79-8.95 135.09-10.65L135.09-10.65 136.84-20.6Q136.89-20.9 136.89-21.4L136.89-21.4Q136.89-22.55 136.09-22.9 135.29-23.25 133.59-23.25ZM114.99-2.4L114.59-0.15 93.39-2.4 114.99-2.4ZM116.69-12.05L116.29-9.8 95.09-12.05 116.69-12.05ZM117.54-16.85L117.14-14.6 95.94-16.85 117.54-16.85ZM118.39-21.65L117.99-19.4 96.79-21.65 118.39-21.65ZM119.19-26.45L118.84-24.2 97.64-26.45 119.19-26.45ZM115.84-7.25L115.44-5 94.24-7.25 115.84-7.25ZM120.04-31.25L119.64-29 98.49-31.25 120.04-31.25Z" fill="#343191" data-fill-palette-color="primary"></path></g></svg></g></svg></g></svg></g></svg></g><g><svg viewBox="0 0 187.20792680196067 187.20792680196067" height="187.20792680196067" width="187.20792680196067"><g><svg></svg></g><g id="icon-0"><svg viewBox="0 0 187.20792680196067 187.20792680196067" height="187.20792680196067" width="187.20792680196067"><g><path d="M0 93.604c0-51.696 41.908-93.604 93.604-93.604 51.696 0 93.604 41.908 93.604 93.604 0 51.696-41.908 93.604-93.604 93.604-51.696 0-93.604-41.908-93.604-93.604zM93.604 180.211c47.832 0 86.607-38.775 86.607-86.607 0-47.832-38.775-86.607-86.607-86.607-47.832 0-86.607 38.775-86.607 86.607 0 47.832 38.775 86.607 86.607 86.607z" data-fill-palette-color="accent" fill="#354db0" stroke="transparent"></path></g><g transform="matrix(1,0,0,1,39.6015854858181,41.00561449624312)"><svg viewBox="0 0 108.00475583032447 105.19669780947443" height="105.19669780947443" width="108.00475583032447"><g><svg xmlns="http://www.w3.org/2000/svg" xmlns:xlink="http://www.w3.org/1999/xlink" version="1.1" x="0" y="0" viewBox="8.715999999999998 9.990000000000002 46.078 44.88" enable-background="new 0 0 64 64" xml:space="preserve" height="105.19669780947443" width="108.00475583032447" class="icon-cg-0" data-fill-palette-color="accent" id="cg-0"><g fill="#354db0" data-fill-palette-color="accent"><g fill="#354db0" data-fill-palette-color="accent"><path fill-rule="evenodd" clip-rule="evenodd" d="M54.794 50.79c-3.917-23.005-17.142-39.666-44.399-40.8-1.448 3.147-0.157 7.849-1.2 10.8 0.395 1.463 2.788 2.61 4.32 1.44-0.483 0.9 0.973 0.81 1.92 1.44-0.035-0.675 0.587-0.692 1.2-0.72-0.994 0.761 1.598 1.054 2.4 0.48-0.018 0.418 0.054 0.746 0.24 0.96 2.91 0.399 6.241 2.534 9.6 3.84-0.283 0.038-0.682-0.041-0.72 0.24 8.384 5.822 13.022 14.059 13.44 25.68 0.383 0.496 1.464 0.295 1.92 0.72 0.08 0 0.16 0 0.239 0 2.805-0.894 7.441 0.226 10.32-0.48 0.879-0.973-0.009-2.236 0.72-3.359C54.794 50.95 54.794 50.87 54.794 50.79zM43.994 51.99c-0.119-6.13-1.191-11.015-3.12-14.4 0.296 0.104 0.493 0.308 0.48 0.72 0.776-0.661-1.527-1.188-0.48-2.159-0.421-0.539-0.991-0.929-1.68-1.2 0.046-0.272 0.241-0.134 0.24 0 0.194-0.046 0.239-0.241 0.479-0.24-0.928-0.272-0.834-1.566-2.16-1.44-0.088-0.408 0.188-0.452 0.48-0.479-2.129-2.865-3.623-5.125-7.44-6.48 0.059-0.261 0.477-0.163 0.48-0.48-5.264-3.78-10.945-6.084-18.72-6.48 0.403-2.172-0.382-4.275 0.48-6.72 22.569 2.573 36.904 15.4 38.88 39.36C49.274 51.99 46.635 51.99 43.994 51.99z" fill="#354db0" data-fill-palette-color="accent"></path><path fill-rule="evenodd" clip-rule="evenodd" d="M10.395 26.07c-0.241 0.32-0.396 0.725-0.72 0.96 0.348 2.521-0.438 5.624-0.38 7.454 0.04-0.027 0.085-0.038 0.141-0.014 0.043 1.063 0.434 1.521-0.72 1.681 0 0.319 0 0.64 0 0.96 0.63-0.134 0.74 0.363 1.2 0.96-0.307-0.014-0.333-0.308-0.72-0.24 0.539 0.883 1.528 1.333 2.64 0.72-0.477 0.554 0.06 0.267 0.24 0.72 2.347-0.219 4.371 1.091 6.24 1.2-0.293 0.027-0.568 0.072-0.48 0.48 3.801 1.398 5.299 5.101 7.2 8.399-0.167 1.412 0.305 4.143 1.2 5.28 1.587 0.049 2.527-0.332 3.84 0.24 0.08 0 0.16 0 0.24 0 1.869-1.004 5.988 0.624 8.16-0.96 0.123-2.396-0.051-5.615-0.96-8.16C33.699 35.077 24.876 25.899 10.395 26.07zM27.915 51.99c0.066-3.783-1.224-7.389-2.64-9.12 0.273-0.007 0.452 0.08 0.574 0.225-0.213-0.537-0.323-1.547-1.534-1.425 0.514-0.493-0.363-1.369-0.96-0.96 0.327-1.586-2.877-2.361-3.12-3.36-1.062 0.114-1.193-0.33-1.92 0 0.078-1.633-3.475-1.619-5.52-1.92-0.11-3.637-0.003-4.485-0.24-6.72 13.876 1.624 22.019 9.495 23.28 23.28C33.194 51.99 30.554 51.99 27.915 51.99z" fill="#354db0" data-fill-palette-color="accent"></path><path fill-rule="evenodd" clip-rule="evenodd" d="M9.435 35.43c-0.096-0.247-0.129-0.581-0.141-0.946C9.055 34.645 9.101 35.577 9.435 35.43z" fill="#354db0" data-fill-palette-color="accent"></path><path fill-rule="evenodd" clip-rule="evenodd" d="M13.034 43.83c-0.593 0.118-0.499 0.35-0.96 0.24 0.649 0.216-0.506 0.579-0.72 0.72-0.095-0.413 0.356-0.615 0-0.72-0.412 0.511-1.37 0.704-0.48 0.96-3.447 2.567-1.44 7.673 1.92 9.359C23.18 56.027 21.452 42.152 13.034 43.83zM17.354 51.03c-1.024 0.247-1.264 1.045-2.16 0.96-0.92-0.088-2.674-2.593-2.16-4.08 0.594-1.717 2.979-1.46 4.56-0.24C18.208 48.832 17.478 49.896 17.354 51.03z" fill="#354db0" data-fill-palette-color="accent"></path></g></g></svg></g></svg></g></svg></g></svg></g></svg></g><defs></defs></svg><rect width="395.52" height="119.54961083877976" fill="none" stroke="none" visibility="hidden"></rect></g></svg></g></svg>