<svg xmlns="http://www.w3.org/2000/svg" version="1.1" xmlns:xlink="http://www.w3.org/1999/xlink" xmlns:svgjs="http://svgjs.dev/svgjs" width="2000" height="601" viewBox="0 0 2000 601"><g transform="matrix(1,0,0,1,-1.2121212121212466,0.49355031933669125)"><svg viewBox="0 0 396 119" data-background-color="#ffffff" preserveAspectRatio="xMidYMid meet" height="601" width="2000" xmlns="http://www.w3.org/2000/svg" xmlns:xlink="http://www.w3.org/1999/xlink"><g id="tight-bounds" transform="matrix(1,0,0,1,0.2400000000000091,-0.09772460565901042)"><svg viewBox="0 0 395.52 119.19516296888237" height="119.19516296888237" width="395.52"><g><svg viewBox="0 0 629.6241879750718 189.74554433363397" height="119.19516296888237" width="395.52"><g transform="matrix(1,0,0,1,234.10418797507177,47.89781109343617)"><svg viewBox="0 0 395.52 93.94992214676164" height="93.94992214676164" width="395.52"><g id="textblocktransform"><svg viewBox="0 0 395.52 93.94992214676164" height="93.94992214676164" width="395.52" id="textblock"><g><svg viewBox="0 0 395.52 93.94992214676164" height="93.94992214676164" width="395.52"><g transform="matrix(1,0,0,1,0,0)"><svg width="395.52" viewBox="3.69 -35.01 147.38 35.01" height="93.94992214676164" data-palette-color="#6ad7c9"><g class="wordmark-text-0" data-fill-palette-color="primary" id="text-0"><path d="M32.64-20.7L32.64-14.31 12.57-14.31 12.57-20.7 32.64-20.7ZM35.47-35.01L35.47-28.66 10.03-28.66 10.03 0 3.69 0 3.69-31.81Q3.69-32.47 3.93-33.06 4.17-33.64 4.6-34.08 5.03-34.52 5.62-34.77 6.2-35.01 6.88-35.01L6.88-35.01 35.47-35.01ZM69.38-20.7L69.38-14.31 49.34-14.31 49.34-20.7 69.38-20.7ZM72.24-6.35L72.24 0 49.34 0Q48.02 0 46.46-0.46 44.89-0.93 43.56-1.99 42.23-3.05 41.34-4.75 40.45-6.45 40.45-8.91L40.45-8.91 40.45-31.81Q40.45-32.47 40.7-33.06 40.94-33.64 41.37-34.08 41.79-34.52 42.38-34.77 42.97-35.01 43.65-35.01L43.65-35.01 72.24-35.01 72.24-28.66 46.8-28.66 46.8-8.91Q46.8-7.67 47.46-7.01 48.12-6.35 49.39-6.35L49.39-6.35 72.24-6.35ZM107.15-20.7L107.15-14.31 87.1-14.31 87.1-20.7 107.15-20.7ZM110-6.35L110 0 87.1 0Q85.79 0 84.22-0.46 82.66-0.93 81.33-1.99 80-3.05 79.11-4.75 78.22-6.45 78.22-8.91L78.22-8.91 78.22-31.81Q78.22-32.47 78.46-33.06 78.71-33.64 79.13-34.08 79.56-34.52 80.15-34.77 80.73-35.01 81.42-35.01L81.42-35.01 110-35.01 110-28.66 84.57-28.66 84.57-8.91Q84.57-7.67 85.22-7.01 85.88-6.35 87.15-6.35L87.15-6.35 110-6.35ZM151.07-20.36L151.07-14.65Q151.07-11.45 149.96-8.76 148.85-6.08 146.89-4.14 144.94-2.2 142.25-1.1 139.57 0 136.42 0L136.42 0 119.28 0Q118.6 0 118.01-0.24 117.42-0.49 117-0.92 116.57-1.34 116.33-1.93 116.08-2.51 116.08-3.2L116.08-3.2 116.08-31.81Q116.08-32.47 116.33-33.06 116.57-33.64 117-34.08 117.42-34.52 118.01-34.77 118.6-35.01 119.28-35.01L119.28-35.01 136.42-35.01Q139.57-35.01 142.25-33.91 144.94-32.81 146.89-30.87 148.85-28.93 149.96-26.23 151.07-23.54 151.07-20.36L151.07-20.36ZM144.72-14.65L144.72-20.36Q144.72-22.22 144.12-23.75 143.52-25.29 142.42-26.38 141.33-27.47 139.8-28.06 138.27-28.66 136.42-28.66L136.42-28.66 122.43-28.66 122.43-6.35 136.42-6.35Q138.27-6.35 139.8-6.95 141.33-7.54 142.42-8.63 143.52-9.72 144.12-11.24 144.72-12.77 144.72-14.65L144.72-14.65Z" fill="#6ad7c9" data-fill-palette-color="primary"></path></g></svg></g></svg></g></svg></g></svg></g><g><svg viewBox="0 0 189.74554433363397 189.74554433363397" height="189.74554433363397" width="189.74554433363397"><g><svg></svg></g><g id="icon-0"><svg viewBox="0 0 189.74554433363397 189.74554433363397" height="189.74554433363397" width="189.74554433363397"><g><path d="M0 94.873c0-52.397 42.476-94.873 94.873-94.873 52.397 0 94.873 42.476 94.873 94.873 0 52.397-42.476 94.873-94.873 94.873-52.397 0-94.873-42.476-94.873-94.873zM94.873 181.273c47.718 0 86.4-38.683 86.4-86.4 0-47.718-38.683-86.4-86.4-86.4-47.718 0-86.4 38.683-86.401 86.4 0 47.718 38.683 86.4 86.401 86.4z" data-fill-palette-color="accent" fill="#6ad7c9" stroke="transparent"></path></g><g transform="matrix(1,0,0,1,41.08322042182783,42.48171608115543)"><svg viewBox="0 0 107.57910348997831 104.7821121713231" height="104.7821121713231" width="107.57910348997831"><g><svg xmlns="http://www.w3.org/2000/svg" xmlns:xlink="http://www.w3.org/1999/xlink" version="1.1" x="0" y="0" viewBox="8.715999999999998 9.990000000000002 46.078 44.88" enable-background="new 0 0 64 64" xml:space="preserve" height="104.7821121713231" width="107.57910348997831" class="icon-cg-0" data-fill-palette-color="accent" id="cg-0"><g fill="#6ad7c9" data-fill-palette-color="accent"><g fill="#6ad7c9" data-fill-palette-color="accent"><path fill-rule="evenodd" clip-rule="evenodd" d="M54.794 50.79c-3.917-23.005-17.142-39.666-44.399-40.8-1.448 3.147-0.157 7.849-1.2 10.8 0.395 1.463 2.788 2.61 4.32 1.44-0.483 0.9 0.973 0.81 1.92 1.44-0.035-0.675 0.587-0.692 1.2-0.72-0.994 0.761 1.598 1.054 2.4 0.48-0.018 0.418 0.054 0.746 0.24 0.96 2.91 0.399 6.241 2.534 9.6 3.84-0.283 0.038-0.682-0.041-0.72 0.24 8.384 5.822 13.022 14.059 13.44 25.68 0.383 0.496 1.464 0.295 1.92 0.72 0.08 0 0.16 0 0.239 0 2.805-0.894 7.441 0.226 10.32-0.48 0.879-0.973-0.009-2.236 0.72-3.359C54.794 50.95 54.794 50.87 54.794 50.79zM43.994 51.99c-0.119-6.13-1.191-11.015-3.12-14.4 0.296 0.104 0.493 0.308 0.48 0.72 0.776-0.661-1.527-1.188-0.48-2.159-0.421-0.539-0.991-0.929-1.68-1.2 0.046-0.272 0.241-0.134 0.24 0 0.194-0.046 0.239-0.241 0.479-0.24-0.928-0.272-0.834-1.566-2.16-1.44-0.088-0.408 0.188-0.452 0.48-0.479-2.129-2.865-3.623-5.125-7.44-6.48 0.059-0.261 0.477-0.163 0.48-0.48-5.264-3.78-10.945-6.084-18.72-6.48 0.403-2.172-0.382-4.275 0.48-6.72 22.569 2.573 36.904 15.4 38.88 39.36C49.274 51.99 46.635 51.99 43.994 51.99z" fill="#6ad7c9" data-fill-palette-color="accent"></path><path fill-rule="evenodd" clip-rule="evenodd" d="M10.395 26.07c-0.241 0.32-0.396 0.725-0.72 0.96 0.348 2.521-0.438 5.624-0.38 7.454 0.04-0.027 0.085-0.038 0.141-0.014 0.043 1.063 0.434 1.521-0.72 1.681 0 0.319 0 0.64 0 0.96 0.63-0.134 0.74 0.363 1.2 0.96-0.307-0.014-0.333-0.308-0.72-0.24 0.539 0.883 1.528 1.333 2.64 0.72-0.477 0.554 0.06 0.267 0.24 0.72 2.347-0.219 4.371 1.091 6.24 1.2-0.293 0.027-0.568 0.072-0.48 0.48 3.801 1.398 5.299 5.101 7.2 8.399-0.167 1.412 0.305 4.143 1.2 5.28 1.587 0.049 2.527-0.332 3.84 0.24 0.08 0 0.16 0 0.24 0 1.869-1.004 5.988 0.624 8.16-0.96 0.123-2.396-0.051-5.615-0.96-8.16C33.699 35.077 24.876 25.899 10.395 26.07zM27.915 51.99c0.066-3.783-1.224-7.389-2.64-9.12 0.273-0.007 0.452 0.08 0.574 0.225-0.213-0.537-0.323-1.547-1.534-1.425 0.514-0.493-0.363-1.369-0.96-0.96 0.327-1.586-2.877-2.361-3.12-3.36-1.062 0.114-1.193-0.33-1.92 0 0.078-1.633-3.475-1.619-5.52-1.92-0.11-3.637-0.003-4.485-0.24-6.72 13.876 1.624 22.019 9.495 23.28 23.28C33.194 51.99 30.554 51.99 27.915 51.99z" fill="#6ad7c9" data-fill-palette-color="accent"></path><path fill-rule="evenodd" clip-rule="evenodd" d="M9.435 35.43c-0.096-0.247-0.129-0.581-0.141-0.946C9.055 34.645 9.101 35.577 9.435 35.43z" fill="#6ad7c9" data-fill-palette-color="accent"></path><path fill-rule="evenodd" clip-rule="evenodd" d="M13.034 43.83c-0.593 0.118-0.499 0.35-0.96 0.24 0.649 0.216-0.506 0.579-0.72 0.72-0.095-0.413 0.356-0.615 0-0.72-0.412 0.511-1.37 0.704-0.48 0.96-3.447 2.567-1.44 7.673 1.92 9.359C23.18 56.027 21.452 42.152 13.034 43.83zM17.354 51.03c-1.024 0.247-1.264 1.045-2.16 0.96-0.92-0.088-2.674-2.593-2.16-4.08 0.594-1.717 2.979-1.46 4.56-0.24C18.208 48.832 17.478 49.896 17.354 51.03z" fill="#6ad7c9" data-fill-palette-color="accent"></path></g></g></svg></g></svg></g></svg></g></svg></g></svg></g><defs></defs></svg><rect width="395.52" height="119.19516296888237" fill="none" stroke="none" visibility="hidden"></rect></g></svg></g></svg>